{"title":"[ShepardTDS] Hyperdimension Neptunia The Animation [720p 8-bit x","uid":12618937,"size":3215787996,"categoryP":"video","categoryS":"tv_shows","magnet":"?xt=urn:btih:7c0448f518c0fccb0f7af38b3c8bdecd6278d4dc&amp;dn=%5BShepardTDS%5D+Hyperdimension+Neptunia+The+Animation+%5B720p+8-bit+x&amp;tr=udp%3A%2F%2Ftracker.leechers-paradise.org%3A6969&amp;tr=udp%3A%2F%2Fzer0day.ch%3A1337&amp;tr=udp%3A%2F%2Fopen.demonii.com%3A1337&amp;tr=udp%3A%2F%2Ftracker.coppersurfer.tk%3A6969&amp;tr=udp%3A%2F%2Fexodus.desync.com%3A6969","seeders":0,"leechers":1,"uploader":"ShepardTDS","files":13,"time":1445563645,"description":"Constant Quality encoding.\r\nVariable Bit rates\r\n\r\nGeneral\r\nFormat : Matroska\r\nFile size : 207 MiB\r\nDuration : 23mn 42s\r\nOverall bit rate : 1,221 Kbps-1,558 kbps\r\nEncoded date : UTC 2015-10-16 13:16:53\r\nWriting application : mkvmerge v7.7.0 ('Six Voices') 32bit built on Feb 28 2015 23:23:00\r\nWriting library : libebml v1.3.1 + libmatroska v1.4.2\r\n\r\nVideo\r\nID : 1\r\nFormat : V_MPEGH/ISO/HEVC\r\nCodec ID : V_MPEGH/ISO/HEVC\r\nDuration : 23mn 42s\r\nBit rate : 813 Kbps-1,143 kbps\r\nWidth : 1 280 pixels\r\nHeight : 720 pixels\r\nDisplay aspect ratio : 16:9\r\nFrame rate : 23.976 fps\r\nBits/(Pixel*Frame) : 0.037-0.052\r\nStream size : 138 MiB (67%)\r\n\r\nAudio #1\r\nID : 2\r\nFormat : AC-3\r\nFormat/Info : Audio Coding 3\r\nMode extension : CM (complete main)\r\nCodec ID : A_AC3\r\nDuration : 23mn 42s\r\nBit rate mode : Constant\r\nBit rate : 192 Kbps\r\nChannel(s) : 6 channels\r\nChannel positions : Front: L C R, Side: L R, LFE\r\nSampling rate : 48.0 KHz\r\nBit depth : 16 bits\r\nCompression mode : Lossy\r\nStream size : 32.6 MiB (16%)\r\nLanguage : English\r\n\r\nAudio #2\r\nID : 3\r\nFormat : AC-3\r\nFormat/Info : Audio Coding 3\r\nMode extension : CM (complete main)\r\nCodec ID : A_AC3\r\nDuration : 23mn 42s\r\nBit rate mode : Constant\r\nBit rate : 192 Kbps\r\nChannel(s) : 2 channels\r\nChannel positions : Front: L R\r\nSampling rate : 48.0 KHz\r\nBit depth : 16 bits\r\nCompression mode : Lossy\r\nStream size : 32.6 MiB (16%)\r\nLanguage : Japanese\r\n\r\nText #1\r\nID : 4\r\nFormat : ASS\r\nCodec ID : S_TEXT/ASS\r\nCodec ID/Info : Advanced Sub Station Alpha\r\nCompression mode : Lossless\r\nTitle : English Signs/Songs\r\nLanguage : English\r\n\r\nText #2\r\nID : 5\r\nFormat : ASS\r\nCodec ID : S_TEXT/ASS\r\nCodec ID/Info : Advanced Sub Station Alpha\r\nCompression mode : Lossless\r\nTitle : English Subtitles\r\nLanguage : English\r\n\r\nMenu\r\n00:00:00.000 : en:Prologue\r\n00:02:27.022 : en:Opening\r\n00:03:57.028 : en:Part A\r\n00:14:17.023 : en:Part B\r\n00:21:20.779 : en:Ending\r\n00:23:25.029 : en:Preview","torrent":{"xt":"urn:btih:7c0448f518c0fccb0f7af38b3c8bdecd6278d4dc","amp;dn":"%5BShepardTDS%5D+Hyperdimension+Neptunia+The+Animation+%5B720p+8-bit+x","amp;tr":["udp%3A%2F%2Ftracker.leechers-paradise.org%3A6969","udp%3A%2F%2Fzer0day.ch%3A1337","udp%3A%2F%2Fopen.demonii.com%3A1337","udp%3A%2F%2Ftracker.coppersurfer.tk%3A6969","udp%3A%2F%2Fexodus.desync.com%3A6969"],"infoHash":"7c0448f518c0fccb0f7af38b3c8bdecd6278d4dc","infoHashBuffer":{"type":"Buffer","data":[124,4,72,245,24,192,252,203,15,122,243,139,60,139,222,205,98,120,212,220]},"announce":[],"urlList":[]}}